<svg xmlns="http://www.w3.org/2000/svg" viewBox="0 0 512 512">
  <rect width="512" height="512" rx="112" fill="#063b4c"/>
  <circle cx="380" cy="120" r="52" fill="#fbbf24"/>
  <path d="M0 330c86-58 160-24 244-56 84-32 153-18 268-76v314H0z" fill="#0f766e"/>
  <path d="M0 365c98-54 181-8 270-42 84-32 157-20 242-60v249H0z" fill="#38bdf8"/>
  <path d="M256 105c-67 0-121 54-121 121 0 92 121 196 121 196s121-104 121-196c0-67-54-121-121-121zm0 164a48 48 0 1 1 0-96 48 48 0 0 1 0 96z" fill="#fff"/>
</svg>
